# AST/ASF file generated using VICON BodyLanguage
# -----------------------------------------------
:version 1.10
:name VICON
:units
  mass 1.0
  length 0.45
  angle deg
:documentation
   .ast/.asf automatically generated from VICON data using
   VICON BodyBuilder and BodyLanguage model FoxedUp or BRILLIANT.MOD
:root
   order TX TY TZ RX RY RZ
   axis XYZ
   position 0 0 0  
   orientation 0 0 0 
:bonedata
  begin
     id 1 
     name lhipjoint
     direction 0.671379 -0.66392 0.329334 
     length 2.38647 
     axis 0 0 0  XYZ
  end
  begin
     id 2 
     name lfemur
     direction 0.34202 -0.939693 0  
     length 6.48179  
     axis 0 0 20  XYZ
    dof rx ry rz
    limits (-160.0 20.0)
           (-70.0 70.0)
           (-60.0 70.0)
  end
  begin
     id 3 
     name ltibia
     direction 0.34202 -0.939693 0   
     length 6.86524   
     axis 0 0 20   XYZ
    dof rx
    limits (-10.0 170.0)
  end
  begin
     id 4 
     name lfoot
     direction 0.204886 -0.562919 0.800715   
     length 1.73031   
     axis -90 7.62852e-016 20   XYZ
    dof rx rz
    limits (-45.0 90.0)
           (-70.0 20.0)
  end
  begin
     id 5 
     name ltoes
     direction 1.53548e-011 -4.21841e-011 1   
     length 0.828161   
     axis -90 7.62852e-016 20   XYZ
    dof rx
    limits (-90.0 20.0)
  end
  begin
     id 6 
     name rhipjoint
     direction -0.662732 -0.670855 0.332775   
     length 2.3618  
     axis 0 0 0  XYZ 
  end
  begin
     id 7 
     name rfemur
     direction -0.34202 -0.939693 0   
     length 6.3025   
     axis 0 0 -20   XYZ
    dof rx ry rz
    limits (-160.0 20.0)
           (-70.0 70.0)
           (-70.0 60.0)
  end
  begin
     id 8 
     name rtibia
     direction -0.34202 -0.939693 0   
     length 6.8732   
     axis 0 0 -20   XYZ
    dof rx
    limits (-10.0 170.0)
 end
 begin
     id 9 
     name rfoot
     direction -0.173856 -0.477665 0.861168   
     length 1.54784  
     axis -90 -7.62852e-016 -20   XYZ
    dof rx rz
    limits (-45.0 90.0)
           (-20.0 70.0)
  end
  begin
     id 10 
     name rtoes
     direction -1.53562e-011 -4.21802e-011 1   
     length 0.759618   
     axis -90 -7.62852e-016 -20   XYZ
    dof rx
    limits (-90.0 20.0)
  end
  begin
     id 11 
     name lowerback
     direction -0.0278357 0.999497 -0.0151789   
     length 1.97203   
     axis 0 0 0   XYZ
    dof rx ry rz
    limits (-20.0 45.0)
           (-30.0 30.0)
           (-30.0 30.0)
  end
  begin
     id 12 
     name upperback
     direction -0.00360622 0.997542 0.0699804   
     length 1.94709   
     axis 0 0 0   XYZ
    dof rx ry rz
    limits (-20.0 45.0)
           (-30.0 30.0)
           (-30.0 30.0)
  end
  begin
     id 13 
     name thorax
     direction 0.00907706 0.997048 0.0762461   
     length 1.95722   
     axis 0 0 0   XYZ
    dof rx ry rz
    limits (-20.0 45.0)
           (-30.0 30.0)
           (-30.0 30.0)
  end
  begin
     id 14 
     name lowerneck
     direction -0.0481835 0.99872 -0.0153927   
     length 1.63078   
     axis 0 0 0   XYZ
    dof rx ry rz
    limits (-20.0 45.0)
           (-30.0 30.0)
           (-30.0 30.0)
  end
  begin
     id 15 
     name upperneck
     direction 0.0859716 0.979226 -0.183644   
     length 1.62591   
     axis 0 0 0   XYZ
    dof rx ry rz
    limits (-20.0 45.0)
           (-30.0 30.0)
           (-30.0 30.0)
  end
  begin
     id 16
     name head
     direction 0.0324821 0.997629 -0.0606773  
     length 1.64811  
     axis 0 0 0   XYZ
    dof rx ry rz
    limits (-20.0 45.0)
           (-30.0 30.0)
           (-30.0 30.0)
  end
  begin
     id 17 
     name lclavicle
     direction 0.939609 0.311019 0.142835  
     length 3.70647  
     axis 0 0 0   XYZ
    dof ry rz
    limits (-20.0 10.0)
           (0.0 20.0)
  end
  begin
     id 18 
     name lhumerus
     direction 1 -4.48963e-011 -1.59838e-027   
     length 4.59207   
     axis 180 -30 -90   XYZ
    dof rx ry rz
    limits (-60.0 90.0)
           (-90.0 90.0)
           (-90.0 90.0)
  end
  begin
     id 19
     name lradius
     direction 1 -4.48957e-011 -1.3483e-026   
     length 2.98109   
     axis 180 -30 -90   XYZ
    dof rx
    limits (-10.0 170.0)
  end
  begin
     id 20
     name lwrist
     direction 1 -4.48954e-011 -3.11579e-026   
     length 1.49055   
     axis 2.00652e-014 90 90   XYZ
    dof ry
    limits (-180.0 0.0)
 end
  begin
     id 21 
     name lhand
     direction 1 -4.4911e-011 -6.23158e-026   
     length 0.480203   
     axis 3.97628e-014 90 90   XYZ
    dof rx rz
    limits (-90.0 90.0)
           (-45.0 45.0)
  end
  begin
     id 22 
     name lfingers
     direction 1 -4.48893e-011 -1.24632e-025   
     length 0.387152   
     axis 7.95256e-014 90 90   XYZ
    dof rx
    limits (0.0 90.0)
  end
  begin
     id 23
     name lthumb
     direction 0.707107 -6.35013e-011 0.707107   
     length 0.555875   
     axis -90 45 2.85299e-015   XYZ
    dof rx rz
    limits (-45.0 45.0)
           (-45.0 45.0)
  end
  begin
     id 24 
     name rclavicle
     direction -0.950396 0.30392 0.0661859   
     length 3.70894  
     axis 0 0 0   XYZ 
    dof ry rz
    limits (-10.0 20.0)
           (-20.0 0.0)
  end
  begin
     id 25 
     name rhumerus
     direction -1 -4.48957e-011 -2.96677e-027  
     length 4.76508   
     axis 180 30 90   XYZ
    dof rx ry rz
    limits (-90.0 60.0)
           (-90.0 90.0)
           (-90.0 90.0)
  end
  begin
     id 26 
     name rradius
     direction -1 -4.48974e-011 -1.44501e-026   
     length 2.78902   
     axis 180 30 90   XYZ
    dof rx
    limits (-10.0 170.0)
  end
  begin
     id 27 
     name rwrist
     direction -1 -4.48978e-011 -3.11579e-026   
     length 1.39451   
     axis 2.00652e-014 -90 -90   XYZ
    dof ry
    limits (-180.0 0.0)
  end
  begin
     id 28
     name rhand
     direction -1 -4.48956e-011 -6.23158e-026   
     length 0.721303   
     axis 3.97628e-014 -90 -90   XYZ
    dof rx rz
    limits (-90.0 90.0)
           (-45.0 45.0)
  end
  begin
     id 29
     name rfingers
     direction -1 -4.4899e-011 -1.24632e-025   
     length 0.581533   
     axis 7.95256e-014 -90 -90   XYZ
    dof rx
    limits (0.0 90.0)
  end
  begin
     id 30
     name rthumb
     direction -0.707107 -6.34911e-011 0.707107   
     length 0.834968   
     axis -90 -45 -2.85299e-015   XYZ
    dof rx rz
    limits (-45.0 45.0)
           (-45.0 45.0)
  end
:hierarchy
  begin
    root lhipjoint rhipjoint lowerback
    lhipjoint lfemur
    lfemur ltibia
    ltibia lfoot
    lfoot ltoes
    rhipjoint rfemur
    rfemur rtibia
    rtibia rfoot
    rfoot rtoes
    lowerback upperback
    upperback thorax
    thorax lowerneck lclavicle rclavicle
    lowerneck upperneck
    upperneck head
    lclavicle lhumerus
    lhumerus lradius
    lradius lwrist
    lwrist lhand lthumb
    lhand lfingers
    rclavicle rhumerus
    rhumerus rradius
    rradius rwrist
    rwrist rhand rthumb
    rhand rfingers
  end

#!OML:ASF I:\salsa\salsa 7_09\Patient 1\Session 1\dancerfemale.ASF
:FULLY-SPECIFIED
:DEGREES
499
root 12.5133 15.744 2.46285 -4.26325 -411.752 7.89307
lowerback 12.0736 -0.702124 -3.69886
upperback -7.98276 -1.19413 4.01459
thorax -15.6978 0.12684 6.99362
lowerneck 3.43509 -7.10892 -10.1577
upperneck 7.06257 -9.87963 1.49708
head 2.30667 -5.20381 2.07904
rclavicle 4.21423e-014 6.36111e-015
rhumerus -59.3512 -3.36217 -82.7811
rradius 79.5954
rwrist -11.8515
rhand -0.0117198 69.6834
rfingers 7.12502
rthumb 25.5791 41.3811
lclavicle 4.21423e-014 6.36111e-015
lhumerus -22.2728 4.18103 84.3319
lradius 117.422
lwrist -29.4053
lhand -16.8006 44.0818
lfingers 7.12502
lthumb 9.42778 433.851
rfemur -30.4955 5.68239 7.10141
rtibia 46.9397
rfoot -23.7182 -8.36742
rtoes -23.3493
lfemur -14.637 -0.615416 -30.5641
ltibia 37.6257
lfoot -25.1734 -0.325141
ltoes -12.388
500
root 12.6533 15.7087 2.43689 -5.1705 -412.083 8.15645
lowerback 12.6879 -0.162899 -3.29466
upperback -7.59953 -0.459957 3.40939
thorax -15.7265 0.374389 5.88045
lowerneck 3.36534 -7.78584 -10.6519
upperneck 6.8576 -10.8302 2.47197
head 2.41619 -5.66436 2.45773
rclavicle 4.63168e-014 2.54444e-014
rhumerus -62.5499 -5.72602 -81.1943
rradius 78.0711
rwrist -11.049
rhand -0.131993 70.5346
rfingers 7.12502
rthumb 25.4639 42.2157
lclavicle 4.63168e-014 2.54444e-014
lhumerus -19.0192 1.48816 88.9144
lradius 116.393
lwrist -29.5697
lhand -18.697 43.0608
lfingers 7.12502
lthumb 7.59766 432.904
rfemur -30.5221 4.3049 7.81182
rtibia 50.7715
rfoot -22.009 -8.89988
rtoes -30.976
lfemur -14.4657 -0.708152 -31.0196
ltibia 37.8241
lfoot -25.1895 0.279818
ltoes -11.9008
501
root 12.7845 15.6716 2.42111 -6.73282 -411.779 9.28141
lowerback 13.1433 0.0879385 -3.19089
upperback -7.13572 -0.213216 2.52204
thorax -15.4721 0.399284 4.72996
lowerneck 3.10832 -8.45211 -11.1286
upperneck 6.57477 -11.7523 3.63317
head 2.56134 -6.10326 2.8881
rclavicle -2.18663e-015 3.33958e-014
rhumerus -65.3997 -7.38002 -80.329
rradius 76.8386
rwrist -11.1203
rhand -1.35633 71.6376
rfingers 7.12502
rthumb 24.2906 43.1565
lclavicle -2.18663e-015 3.33958e-014
lhumerus -16.2849 -1.2922 92.7521
lradius 115.475
lwrist -29.2047
lhand -19.8175 42.2742
lfingers 7.12502
lthumb 6.516 432.154
rfemur -30.2439 2.38183 7.72432
rtibia 54.6843
rfoot -21.5097 -9.57298
rtoes -30.0254
lfemur -14.1148 -1.0598 -32.0508
ltibia 37.927
lfoot -25.4112 0.326018
ltoes -9.35324
502
root 12.9011 15.6406 2.41161 -8.84639 -411.017 11.1385
lowerback 13.5247 0.125349 -3.55465
upperback -6.65996 -0.376475 1.45135
thorax -15.1175 0.271655 3.75357
lowerneck 2.91696 -9.02494 -11.6266
upperneck 6.09781 -12.5624 4.97301
head 2.65397 -6.48121 3.3947
rclavicle 3.67752e-014 6.36111e-015
rhumerus -68.0589 -8.47003 -79.9468
rradius 76.5985
rwrist -11.9925
rhand -0.699329 69.9176
rfingers 7.12502
rthumb 24.9204 41.5223
lclavicle 3.67752e-014 6.36111e-015
lhumerus -14.3984 -4.11473 95.8979
lradius 114.776
lwrist -29.0919
lhand -20.5598 42.235
lfingers 7.12502
lthumb 5.7994 432.136
rfemur -29.6835 0.18947 6.97832
rtibia 58.6132
rfoot -20.4777 -10.2202
rtoes -28.8239
lfemur -13.6373 -1.27375 -33.5353
ltibia 37.9452
lfoot -25.5942 -0.356889
ltoes -5.7608
503
root 13.0102 15.6104 2.39755 -10.02 -410.376 12.1432
lowerback 13.5609 -0.0271782 -3.32472
upperback -6.1749 -0.660505 0.438375
thorax -14.5371 0.0308188 2.54479
lowerneck 2.90057 -9.4423 -12.0556
upperneck 5.43097 -13.2115 6.92243
head 2.40631 -6.75056 3.67558
rclavicle 2.98177e-015 1.35174e-014
rhumerus -70.3877 -9.11997 -80.1234
rradius 76.4758
rwrist -12.9568
rhand -0.603124 70.5711
rfingers 7.12502
rthumb 25.0126 42.1886
lclavicle 2.98177e-015 1.35174e-014
lhumerus -13.2349 -6.91456 98.2748
lradius 114.253
lwrist -28.8941
lhand -21.9972 42.3807
lfingers 7.12502
lthumb 4.41146 432.315
rfemur -29.2729 -1.80657 6.86329
rtibia 62.2742
rfoot -19.5903 -10.6608
rtoes -26.1693
lfemur -13.5905 -0.657039 -34.3994
ltibia 37.9258
lfoot -25.2595 -1.24768
ltoes -6.92887
504
root 13.1127 15.574 2.38616 -10.9815 -409.726 12.8513
lowerback 13.4863 -0.342516 -2.85472
upperback -5.60703 -1.10768 -0.57459
thorax -13.8113 -0.301913 1.25443
lowerneck 2.78514 -9.73916 -12.2927
upperneck 4.59306 -13.6389 8.43039
head 2.33355 -6.93257 4.14694
rclavicle -3.63776e-014 1.82882e-014
rhumerus -72.2839 -9.06999 -80.9262
rradius 76.7929
rwrist -13.6514
rhand -1.10335 69.6611
rfingers 7.12502
rthumb 24.5331 41.2127
lclavicle -3.63776e-014 1.82882e-014
lhumerus -12.6841 -9.61808 100.085
lradius 113.975
lwrist -28.272
lhand -23.3824 42.2655
lfingers 7.12502
lthumb 3.07385 432.223
rfemur -28.5906 -3.95327 6.9348
rtibia 65.4947
rfoot -18.8827 -11.2666
rtoes -23.8562
lfemur -13.5758 0.620733 -35.0877
ltibia 37.9307
lfoot -24.7216 -2.19261
ltoes -15.1629
505
root 13.2074 15.5406 2.38458 -12.2558 -409.037 13.8238
lowerback 13.5336 -0.812943 -2.39183
upperback -5.06632 -1.78633 -1.72573
thorax -13.2343 -0.737307 -0.114941
lowerneck 2.50085 -9.84499 -12.3965
upperneck 4.06781 -13.7908 9.74592
head 2.33721 -6.98343 4.54025
rclavicle 2.29596e-014 -2.38542e-015
rhumerus -73.854 -8.43571 -82.0338
rradius 77.2501
rwrist -14.5508
rhand -1.17801 69.8915
rfingers 7.12502
rthumb 24.4616 41.4335
lclavicle 2.29596e-014 -2.38542e-015
lhumerus -12.8165 -11.9191 101.278
lradius 113.963
lwrist -27.7814
lhand -23.5904 41.8034
lfingers 7.12502
lthumb 2.87292 431.764
rfemur -27.4072 -6.25203 6.67072
rtibia 68.1014
rfoot -18.435 -11.9721
rtoes -22.5753
lfemur -13.298 2.09103 -35.9226
ltibia 37.9713
lfoot -25.186 -3.4516
ltoes -17.578
506
root 13.3013 15.519 2.38951 -13.1384 -408.632 14.4297
lowerback 13.4589 -1.35127 -1.54015
upperback -4.59934 -2.47452 -2.837
thorax -12.7358 -1.19856 -1.65455
lowerneck 2.14683 -9.79643 -12.508
upperneck 3.85503 -13.7465 10.9932
head 2.42119 -6.9406 4.91627
rclavicle 1.5704e-014 -9.54166e-015
rhumerus -75.1338 -7.48908 -83.3786
rradius 77.8738
rwrist -15.4896
rhand -1.30247 69.877
rfingers 7.12502
rthumb 24.3423 41.4029
lclavicle 1.5704e-014 -9.54166e-015
lhumerus -13.3324 -13.793 102.007
lradius 114.031
lwrist -27.4794
lhand -23.4318 40.8632
lfingers 7.12502
lthumb 3.02615 430.822
rfemur -26.0617 -8.31552 6.64586
rtibia 69.9803
rfoot -18.0004 -12.3207
rtoes -22.1559
lfemur -13.0617 3.54726 -36.4183
ltibia 37.9811
lfoot -25.7101 -4.76023
ltoes -18.7838
507
root 13.3915 15.505 2.39607 -13.6914 -408.624 14.8169
lowerback 13.2236 -1.79276 -0.432852
upperback -4.3021 -2.99435 -3.96717
thorax -12.4021 -1.5967 -3.40781
lowerneck 2.10578 -9.69273 -12.3012
upperneck 3.80741 -13.6617 11.9439
head 2.45577 -6.8887 5.17555
rclavicle -4.35338e-014 -1.05356e-014
rhumerus -76.4133 -6.54249 -84.8675
rradius 78.5914
rwrist -16.4682
rhand -1.5036 69.3711
rfingers 7.12502
rthumb 24.1494 40.8712
lclavicle -4.35338e-014 -1.05356e-014
lhumerus -14.4428 -15.6815 102.508
lradius 114.085
lwrist -27.1313
lhand -23.4872 40.2003
lfingers 7.12502
lthumb 2.97258 430.159
rfemur -24.7186 -10.1152 6.8903
rtibia 71.1856
rfoot -17.4971 -12.0554
rtoes -22.4149
lfemur -13.0061 4.94661 -36.6689
ltibia 37.9941
lfoot -26.0964 -5.80152
ltoes -21.2539
508
root 13.4735 15.4925 2.40273 -14.3034 -408.918 15.5212
lowerback 12.801 -2.01067 0.527039
upperback -4.17078 -3.27401 -5.2518
thorax -12.1764 -1.88157 -5.32577
lowerneck 2.39733 -9.61218 -11.5131
upperneck 3.79547 -13.6265 12.5858
head 2.39074 -6.87125 5.27092
rclavicle 1.01517e-013 3.18055e-014
rhumerus -77.6901 -6.01319 -86.2655
rradius 79.4639
rwrist -17.4757
rhand -1.16493 68.8177
rfingers 7.12502
rthumb 24.4741 40.3613
lclavicle 1.01517e-013 3.18055e-014
lhumerus -16.1584 -17.9147 102.856
lradius 114.129
lwrist -26.4702
lhand -23.7876 40.6644
lfingers 7.12502
lthumb 2.68251 430.627
rfemur -23.4436 -11.7036 7.01045
rtibia 71.8087
rfoot -17.1473 -11.325
rtoes -22.2337
lfemur -13.1789 6.4024 -37.0416
ltibia 38.1206
lfoot -26.8078 -6.76179
ltoes -22.1287
